<svg xmlns="http://www.w3.org/2000/svg" viewBox="0 0 256 361" style="width: 100px; height: auto;">
    <path fill="#E44D26" d="M0 0l23 259.8 104 28.8 105-28.8L256 0H0z"/>
    <path fill="#F16529" d="M128 338.4v-44.8l-.3.1-82.4-22.8L36.7 20h91.6v318.4z"/>
    <path fill="#EBEBEB" d="M128 62.5v33.7h62l-3.7 40.9H128v33.7h54.4l-5.1 54.5-49.3 13.3v36.2l82.5-23 11.1-122.5 1-11.2 7.2-80.7H128z"/>
    <path fill="#FFF" d="M74.6 136.3h53.2v-33.7H71.9l2.7-30.3H128v-33.8H48.2l-.6 6.5-6.4 71-.6 6.8h34z"/>
</svg>